<?xml version="1.0" standalone="no"?>
<!DOCTYPE svg PUBLIC "-//W3C//DTD SVG 20010904//EN"
 "http://www.w3.org/TR/2001/REC-SVG-20010904/DTD/svg10.dtd">
<svg version="1.0" xmlns="http://www.w3.org/2000/svg"
 width="120.000000pt" height="120.000000pt" viewBox="0 0 120.000000 120.000000"
 preserveAspectRatio="xMidYMid meet">
<metadata>
Created by potrace 1.14, written by Peter Selinger 2001-2017
</metadata>
<g transform="translate(0.000000,120.000000) scale(0.100000,-0.100000)"
fill="#000000" stroke="none">
<path d="M0 600 l0 -600 300 0 300 0 0 600 0 600 -300 0 -300 0 0 -600z m530
30 c0 -224 2 -260 15 -260 12 0 15 -16 15 -80 0 -64 -3 -80 -15 -80 -11 0 -15
12 -15 50 l0 50 -205 0 -205 0 0 -50 0 -50 -35 0 -35 0 0 80 c0 66 3 80 16 80
8 0 28 13 44 28 40 40 60 143 67 335 l6 157 173 0 174 0 0 -260z"/>
<path d="M260 718 c0 -125 -12 -215 -39 -295 l-18 -53 124 0 123 0 0 230 0
230 -95 0 -95 0 0 -112z"/>
<path d="M660 870 l0 -30 105 0 105 0 0 -260 0 -260 35 0 35 0 0 260 0 260
105 0 105 0 0 30 0 30 -245 0 -245 0 0 -30z"/>
</g>
</svg>
